<?xml version="1.0" encoding="UTF-8"?> <svg xmlns:xlink="http://www.w3.org/1999/xlink" xmlns="http://www.w3.org/2000/svg" width="32" height="32" viewBox="0 0 256 256"><path fill="#FCFCFC" d="M231.3 31.7A16.1 16.1 0 0 0 215 29L30.4 101.5a15.8 15.8 0 0 0-10.1 16.3a16 16 0 0 0 12.8 14.3l46.9 9.3V200a16 16 0 0 0 9.9 14.8A16.6 16.6 0 0 0 96 216a15.8 15.8 0 0 0 11.3-4.7l26-25.9l39.3 34.6a16 16 0 0 0 10.5 4a14.2 14.2 0 0 0 5-.8a15.9 15.9 0 0 0 10.7-11.6l37.6-164.2a16 16 0 0 0-5.1-15.7ZM86.1 126.3l-49.8-9.9l139.6-54.9ZM96 200v-47.4l25.2 22.2Zm87.2 8l-82.4-72.5l118.7-85.7Z"></path></svg> 