<?xml version="1.0" encoding="UTF-8"?> <svg xmlns:xlink="http://www.w3.org/1999/xlink" xmlns="http://www.w3.org/2000/svg" width="32" height="32" viewBox="0 0 21 21" fill="none"><path fill-rule="evenodd" clip-rule="evenodd" d="M1.00116 16.5018C1.00116 16.8438 1.07716 17.1953 1.23866 17.5373C1.40016 17.8793 1.60916 18.2023 1.88466 18.5063C2.35016 19.0193 2.86316 19.3898 3.44266 19.6273C4.01266 19.8648 4.63016 19.9883 5.29516 19.9883C6.26416 19.9883 7.29966 19.7603 8.39216 19.2948C9.48466 18.8293 10.5772 18.2023 11.6602 17.4138C12.7527 16.6158 13.7882 15.7323 14.7762 14.7538C15.7547 13.7658 16.6382 12.7303 17.4267 11.6473C18.2057 10.5643 18.8327 9.48128 19.2887 8.40778C19.7447 7.32478 19.9727 6.28928 19.9727 5.30128C19.9727 4.65528 19.8587 4.03778 19.6307 3.46778C19.4027 2.88828 19.0417 2.35628 18.5382 1.88128C17.9302 1.28278 17.2652 0.988281 16.5622 0.988281C16.2962 0.988281 16.0302 1.04528 15.7927 1.15928C15.5457 1.27328 15.3272 1.44428 15.1562 1.69128L12.9522 4.79778C12.7812 5.03528 12.6577 5.25378 12.5722 5.46278C12.4867 5.66228 12.4392 5.86178 12.4392 6.04228C12.4392 6.27028 12.5057 6.49828 12.6387 6.71678C12.7622 6.93528 12.9427 7.16328 13.1707 7.39128L13.8927 8.14178C13.9972 8.24628 14.0447 8.36978 14.0447 8.52178C14.0447 8.59778 14.0352 8.66428 14.0162 8.74028C13.9877 8.81628 13.9592 8.87328 13.9402 8.93028C13.7692 9.24378 13.4747 9.65228 13.0567 10.1463C12.6292 10.6403 12.1732 11.1438 11.6792 11.6473C11.1662 12.1508 10.6722 12.6163 10.1687 13.0438C9.67466 13.4618 9.26616 13.7468 8.94316 13.9178C8.89566 13.9368 8.83866 13.9653 8.77216 13.9938C8.69616 14.0223 8.62016 14.0318 8.53466 14.0318C8.37316 14.0318 8.24966 13.9748 8.14516 13.8703L7.42316 13.1578C7.18566 12.9203 6.95766 12.7398 6.73916 12.6258C6.52066 12.4928 6.30216 12.4263 6.06466 12.4263C5.88416 12.4263 5.69416 12.4643 5.48516 12.5498C5.27616 12.6353 5.05766 12.7588 4.82016 12.9203L1.67566 15.1528C1.42866 15.3238 1.25766 15.5233 1.15316 15.7608C1.05816 15.9983 1.00116 16.2358 1.00116 16.5018Z" stroke="#FCFCFC" fill="none"></path></svg> 